<svg width="330" height="62" viewBox="0 0 330 62" fill="none" xmlns="http://www.w3.org/2000/svg">
<path d="M40.656 37.064C39.888 37.32 38.9493 37.4907 37.84 37.576C36.7733 37.6187 36.0693 37.64 35.728 37.64C35.6853 38.9627 35.6 40.4347 35.472 42.056C35.344 43.6773 35.2373 45.0213 35.152 46.088L34.96 48.072L34.832 50.12L34.448 55.048C34.2773 57.224 33.5733 58.312 32.336 58.312C31.8667 58.312 31.3973 57.7573 30.928 56.648C30.5013 55.5813 30.288 54.7067 30.288 54.024C30.288 53.8533 30.4587 53.512 30.8 53C31.1413 52.488 31.3547 51.848 31.44 51.08C31.6107 49.8853 31.8027 47.9013 32.016 45.128C32.2293 42.3547 32.3787 40.0293 32.464 38.152C30.8 38.28 29.008 38.472 27.088 38.728C26.2347 38.8133 24.3147 39.0053 21.328 39.304C18.3413 39.6027 15.9947 39.7947 14.288 39.88C14.1173 42.696 13.9253 46.1307 13.712 50.184C13.4987 54.2373 13.392 56.712 13.392 57.608C13.392 57.9493 13.4347 58.3973 13.52 58.952C13.648 59.5067 13.712 59.9333 13.712 60.232C13.712 60.616 13.4133 61 12.816 61.384C12.2613 61.768 11.8133 61.96 11.472 61.96C11.0453 61.96 10.6827 61.6827 10.384 61.128C10.128 60.5733 10 59.9333 10 59.208C10 58.824 10.0427 58.184 10.128 57.288C10.2133 56.4347 10.2773 55.688 10.32 55.048C10.4907 53.896 10.5973 52.9573 10.64 52.232C10.8533 49.7147 11.024 47.2827 11.152 44.936C11.28 42.5893 11.3653 41.0107 11.408 40.2C8.72 40.6693 6.18133 40.904 3.792 40.904C2.98133 40.904 2.29867 40.712 1.744 40.328C1.14667 39.9013 0.848 39.304 0.848 38.536C0.848 37.9813 0.997333 37.576 1.296 37.32C1.552 37.0213 2.10667 36.872 2.96 36.872L6.352 36.936C8.57067 37.0213 10.3627 37.064 11.728 37.064C11.9413 33.4373 12.048 30.536 12.048 28.36C12.048 23.4107 12.0053 18.9733 11.92 15.048V12.68C11.92 12.04 12.1547 11.528 12.624 11.144C13.136 10.7173 13.712 10.504 14.352 10.504C14.8213 10.504 15.1413 10.8667 15.312 11.592C15.4827 12.3173 15.568 13.128 15.568 14.024C15.568 14.9627 15.4613 16.8827 15.248 19.784C14.992 24.7333 14.864 27.3573 14.864 27.656L14.544 36.808C18.128 36.7227 24.208 36.168 32.784 35.144C32.9547 33.9067 33.2533 30.664 33.68 25.416C33.8507 22.6427 34 20.616 34.128 19.336L34.512 14.344C35.0667 8.072 35.344 4.14666 35.344 2.568C35.344 2.01333 35.5573 1.56533 35.984 1.224C36.4107 0.882665 36.9013 0.711998 37.456 0.711998C38.224 0.711998 38.608 1.45866 38.608 2.952C38.608 3.89066 38.3947 6.38666 37.968 10.44C37.4987 15.7307 37.2427 18.6747 37.2 19.272C36.944 22.5573 36.688 25.6933 36.432 28.68C36.2187 31.6667 36.0693 33.672 35.984 34.696C36.752 34.568 37.4347 34.376 38.032 34.12C38.8 33.864 39.3973 33.736 39.824 33.736C40.2507 33.736 40.7413 33.992 41.296 34.504C41.8507 35.016 42.128 35.3787 42.128 35.592C42.128 36.2747 41.6373 36.7653 40.656 37.064ZM91.446 54.088C90.5927 54.088 89.8033 53.192 89.078 51.4C88.3953 49.608 87.9687 47.752 87.798 45.832C87.6273 44.2107 87.4567 40.4347 87.286 34.504C87.2007 32.0293 87.1367 30.4933 87.094 29.896C84.15 37.064 80.7793 43.3573 76.982 48.776C73.2273 54.1947 69.686 56.904 66.358 56.904C64.694 56.904 63.2433 55.9013 62.006 53.896C60.8113 51.8907 59.894 49.2027 59.254 45.832C58.614 42.4187 58.294 38.6853 58.294 34.632C58.294 31.3467 58.486 27.6347 58.87 23.496C59.254 19.3147 59.7233 16.3067 60.278 14.472C60.4487 13.96 60.6833 13.5547 60.982 13.256C61.3233 12.9147 61.7073 12.744 62.134 12.744C63.2007 12.744 63.734 13.1493 63.734 13.96C63.734 14.088 63.3287 15.624 62.518 18.568C61.7073 21.512 61.302 27.016 61.302 35.08C61.302 40.4133 61.7927 44.808 62.774 48.264C63.798 51.6773 65.2273 53.384 67.062 53.384C68.854 53.384 70.9873 51.9333 73.462 49.032C75.9367 46.088 78.2833 42.5893 80.502 38.536C82.7633 34.4827 84.406 30.92 85.43 27.848C86.1127 25.5867 86.5607 22.1947 86.774 17.672C86.902 15.9227 87.0087 15.0053 87.094 14.92C87.4353 14.4933 87.9473 14.28 88.63 14.28C89.398 14.28 89.782 15.3253 89.782 17.416C89.782 19.9333 89.846 24.712 89.974 31.752C90.1447 38.792 90.3367 43.2507 90.55 45.128C90.7207 46.7067 91.0193 47.944 91.446 48.84C91.9153 49.736 92.406 50.4827 92.918 51.08C93.43 51.6773 93.686 52.0613 93.686 52.232C93.686 52.744 93.4727 53.1707 93.046 53.512C92.6193 53.896 92.086 54.088 91.446 54.088ZM131.282 25.864C130.685 26.4187 129.81 26.8453 128.658 27.144C127.549 27.4 125.693 27.7627 123.09 28.232C122.109 29.8533 120.402 33.2667 117.97 38.472C115.538 43.6347 114.322 46.536 114.322 47.176C114.322 47.9013 115.517 48.4773 117.906 48.904C120.338 49.288 122.642 49.48 124.818 49.48C126.311 49.48 127.997 49.416 129.874 49.288C131.794 49.1173 132.989 48.968 133.458 48.84C134.866 48.456 135.954 47.944 136.722 47.304C137.533 46.664 138.023 46.344 138.194 46.344C138.407 46.344 138.557 46.4933 138.642 46.792C138.727 47.048 138.77 47.5813 138.77 48.392C138.77 51.208 134.269 52.616 125.266 52.616C121.895 52.616 118.674 52.2107 115.602 51.4C112.53 50.5893 110.994 49.5013 110.994 48.136C110.994 47.1547 111.954 44.616 113.874 40.52C115.837 36.3813 117.821 32.4133 119.826 28.616C118.887 28.744 117.927 28.9787 116.946 29.32C115.965 29.6187 115.367 29.8107 115.154 29.896C114.514 30.1093 113.874 30.344 113.234 30.6C112.594 30.856 112.21 30.984 112.082 30.984C111.57 30.984 111.079 30.7067 110.61 30.152C110.141 29.5973 109.906 29.064 109.906 28.552C109.906 28.2533 110.077 28.04 110.418 27.912C110.802 27.7413 111.485 27.5707 112.466 27.4L121.49 25.864C122.941 23.3467 124.242 20.9147 125.394 18.568C126.546 16.1787 127.122 14.664 127.122 14.024C127.122 13.768 126.781 13.64 126.098 13.64C125.415 13.64 123.623 13.8533 120.722 14.28L118.354 14.6C113.447 15.368 110.631 15.752 109.906 15.752C109.01 15.752 108.562 15.5813 108.562 15.24C108.562 14.8133 108.839 14.3867 109.394 13.96C109.991 13.5333 110.823 13.2133 111.89 13L113.49 12.68C116.391 12.1253 118.162 11.8053 118.802 11.72C121.703 11.336 123.346 11.1013 123.73 11.016C125.821 10.7173 127.101 10.568 127.57 10.568C128.338 10.568 129.021 10.696 129.618 10.952C130.258 11.208 130.578 11.5493 130.578 11.976C130.578 12.5307 129.938 14.28 128.658 17.224C127.421 20.1253 126.077 22.8987 124.626 25.544C126.674 25.0747 128.679 24.392 130.642 23.496C131.41 23.1973 131.837 23.048 131.922 23.048C132.05 23.048 132.178 23.112 132.306 23.24C132.434 23.368 132.498 23.496 132.498 23.624C132.498 23.9653 132.37 24.3707 132.114 24.84C131.858 25.2667 131.581 25.608 131.282 25.864ZM185.212 34.76C184.913 35.016 184.295 35.2507 183.356 35.464C182.417 35.6347 181.777 35.7413 181.436 35.784C181.777 37.4053 181.948 38.1947 181.948 38.152C182.247 39.2187 182.567 40.6907 182.908 42.568C183.676 46.8773 184.465 50.5467 185.276 53.576C185.489 54.5573 185.596 55.1333 185.596 55.304C185.596 55.7307 185.425 56.0933 185.084 56.392C184.743 56.6907 184.337 56.84 183.868 56.84C183.441 56.84 183.057 56.6053 182.716 56.136C182.375 55.7093 182.14 55.3253 182.012 54.984C181.628 53.5333 181.265 51.912 180.924 50.12C180.625 48.328 180.263 46.1733 179.836 43.656C179.665 42.5467 179.388 41.1813 179.004 39.56C178.62 37.896 178.364 36.808 178.236 36.296C175.719 36.6373 171.388 37.32 165.244 38.344L161.532 38.984L160.188 42.76L158.396 47.88C156.903 52.5307 155.836 56.1147 155.196 58.632C155.068 59.2293 154.812 59.72 154.428 60.104C154.044 60.5307 153.575 60.744 153.02 60.744C152.551 60.744 152.145 60.616 151.804 60.36C151.505 60.104 151.356 59.7413 151.356 59.272C151.356 58.8027 151.612 57.8 152.124 56.264C152.636 54.7707 152.935 53.8747 153.02 53.576C153.191 53.1493 153.532 52.168 154.044 50.632C154.599 48.968 155.303 46.9627 156.156 44.616C157.052 42.2267 157.649 40.648 157.948 39.88C155.772 40.392 154.151 40.7973 153.084 41.096C151.463 41.5227 150.46 41.736 150.076 41.736C149.607 41.736 149.244 41.5653 148.988 41.224C148.775 40.84 148.668 40.4347 148.668 40.008C148.668 39.496 148.796 39.1547 149.052 38.984C149.308 38.7707 149.735 38.5787 150.332 38.408C151.953 38.024 153.66 37.64 155.452 37.256C157.287 36.872 158.545 36.616 159.228 36.488C159.655 35.2507 159.975 34.2053 160.188 33.352C160.359 32.7973 160.572 32.1147 160.828 31.304C161.127 30.4507 161.447 29.4053 161.788 28.168L162.748 24.904C164.369 19.1867 165.308 15.9227 165.564 15.112C165.777 14.5147 165.969 14.0453 166.14 13.704C166.353 13.3627 166.631 13.192 166.972 13.192C167.825 13.192 168.593 13.32 169.276 13.576C169.361 13.4907 169.489 13.32 169.66 13.064C169.873 12.7653 170.087 12.5733 170.3 12.488C170.556 12.36 170.876 12.296 171.26 12.296C172.028 12.296 172.903 13.1707 173.884 14.92C174.908 16.6693 175.889 18.7387 176.828 21.128C177.383 22.536 178.087 24.648 178.94 27.464C179.793 30.2373 180.348 32.072 180.604 32.968C181.244 32.8827 181.777 32.776 182.204 32.648C182.673 32.4773 182.972 32.3707 183.1 32.328C183.313 32.2427 183.548 32.0933 183.804 31.88C184.06 31.6667 184.295 31.5173 184.508 31.432C184.721 31.304 184.956 31.304 185.212 31.432C185.767 31.688 186.044 32.2213 186.044 33.032C186.044 33.3307 185.959 33.6507 185.788 33.992C185.66 34.3333 185.468 34.5893 185.212 34.76ZM174.396 22.664C173.799 21.0853 173.031 19.464 172.092 17.8C171.153 16.136 170.364 15.0907 169.724 14.664L169.02 16.328C168.209 17.9493 167.591 19.4213 167.164 20.744C166.14 23.816 164.519 28.8933 162.3 35.976L169.788 34.696L175.932 33.736L177.66 33.48C177.447 32.712 176.999 31.112 176.316 28.68C175.633 26.2053 174.993 24.2 174.396 22.664ZM230.593 14.856C228.843 15.1973 226.625 15.5387 223.937 15.88C221.249 16.1787 219.073 16.3707 217.409 16.456C217.281 18.2907 217.11 23.5813 216.897 32.328C216.683 41.0747 216.555 47.5387 216.513 51.72C218.817 51.6773 221.846 51.528 225.601 51.272C228.758 51.1013 230.529 51.016 230.913 51.016C231.681 51.016 232.363 51.1867 232.961 51.528C233.601 51.8693 233.921 52.4027 233.921 53.128C233.921 53.7253 233.814 54.152 233.601 54.408C233.43 54.664 233.025 54.792 232.385 54.792C232.129 54.792 231.425 54.728 230.273 54.6C229.419 54.4293 228.694 54.344 228.097 54.344C226.091 54.344 222.081 54.472 216.065 54.728C215.851 55.0267 215.595 55.24 215.297 55.368C215.041 55.5387 214.806 55.624 214.593 55.624C214.337 55.624 214.081 55.56 213.825 55.432C213.569 55.304 213.419 55.112 213.377 54.856L210.497 55.176C207.169 55.6027 204.694 55.816 203.073 55.816C201.665 55.816 200.598 55.5173 199.873 54.92C199.489 54.5787 199.297 53.96 199.297 53.064C199.297 52.808 199.425 52.488 199.681 52.104C199.979 51.72 200.278 51.528 200.577 51.528C200.662 51.528 200.982 51.656 201.537 51.912C202.134 52.1253 202.689 52.232 203.201 52.232C204.779 52.232 207.105 52.1467 210.177 51.976L213.121 51.784L213.505 42.376C213.547 41.3947 213.59 40.52 213.633 39.752C213.675 38.9413 213.697 38.2587 213.697 37.704L214.337 16.776C209.899 17.0747 207.787 17.224 208.001 17.224C203.649 17.5653 201.089 17.736 200.321 17.736C199.595 17.736 198.913 17.5013 198.273 17.032C197.633 16.5627 197.313 15.9653 197.313 15.24C197.313 14.728 197.441 14.3227 197.697 14.024C197.995 13.7253 198.379 13.576 198.849 13.576C199.19 13.576 199.531 13.5973 199.873 13.64C200.214 13.6827 200.555 13.7253 200.897 13.768C201.963 13.9813 202.987 14.088 203.969 14.088C204.907 14.088 206.699 14.024 209.345 13.896C211.99 13.7253 213.761 13.6187 214.657 13.576C214.699 13.0213 214.891 12.5733 215.233 12.232C215.574 11.848 216.022 11.656 216.577 11.656C216.833 11.656 217.046 11.8267 217.217 12.168C217.387 12.5093 217.473 12.8933 217.473 13.32C219.947 13.2347 224.406 12.68 230.849 11.656C231.361 11.5707 231.915 11.336 232.513 10.952C233.153 10.568 233.515 10.376 233.601 10.376C234.027 10.376 234.433 10.5467 234.817 10.888C235.201 11.2293 235.393 11.656 235.393 12.168C235.393 12.9787 234.987 13.5547 234.177 13.896C233.366 14.2373 232.171 14.5573 230.593 14.856ZM279.366 32.712C278.171 32.84 275.334 33.3947 270.854 34.376C266.417 35.3147 263.153 36.0613 261.062 36.616C261.062 37.5547 261.062 39.5387 261.062 42.568C261.105 45.5547 261.169 48.0933 261.254 50.184C261.297 50.9947 261.382 51.8907 261.51 52.872C261.681 53.8533 261.787 54.5573 261.83 54.984C262.086 56.52 262.214 57.4373 262.214 57.736C262.214 58.2053 261.979 58.888 261.51 59.784C261.083 60.7227 260.721 61.192 260.422 61.192C260.123 61.192 259.846 61.0427 259.59 60.744C259.334 60.4453 259.163 60.0827 259.078 59.656C258.651 57.736 258.353 54.6213 258.182 50.312C257.969 45.064 257.862 40.968 257.862 38.024C257.606 38.0667 257.179 38.152 256.582 38.28C256.027 38.3653 255.537 38.4293 255.11 38.472C254.683 38.472 254.235 38.3653 253.766 38.152C253.297 37.9387 253.062 37.6827 253.062 37.384C253.062 37.0427 253.169 36.7867 253.382 36.616C253.638 36.4453 253.915 36.3173 254.214 36.232C254.513 36.104 254.726 36.0187 254.854 35.976C256.39 35.336 257.414 34.9307 257.926 34.76L257.414 20.488C254.257 21 251.931 21.256 250.438 21.256C248.774 21.256 247.622 20.8507 246.982 20.04C246.385 19.2293 246.086 18.4827 246.086 17.8C246.086 17.416 246.363 17.224 246.918 17.224C247.003 17.224 247.494 17.3733 248.39 17.672C249.329 17.9707 250.139 18.12 250.822 18.12C252.187 18.12 254.363 17.9067 257.35 17.48C257.35 17.3947 257.371 17.0747 257.414 16.52C257.457 15.9227 257.649 15.3893 257.99 14.92C258.203 14.536 258.395 14.28 258.566 14.152C258.737 14.024 258.929 13.96 259.142 13.96C259.953 13.96 260.358 14.856 260.358 16.648C260.955 16.52 262.299 16.264 264.39 15.88C266.523 15.496 268.955 15.1333 271.686 14.792C274.417 14.4507 276.785 14.28 278.79 14.28C280.411 14.28 281.222 14.6 281.222 15.24C281.222 15.752 281.03 16.4133 280.646 17.224C280.305 18.0347 279.899 18.44 279.43 18.44C279.259 18.44 279.089 18.3547 278.918 18.184C278.747 17.9707 278.619 17.8427 278.534 17.8C278.15 17.6293 277.595 17.544 276.87 17.544C275.547 17.544 272.902 17.8213 268.934 18.376C265.009 18.9307 262.171 19.4 260.422 19.784L260.87 33.672C263.174 33.0747 266.715 32.264 271.494 31.24C276.273 30.216 279.067 29.704 279.878 29.704C280.219 29.704 280.454 29.768 280.582 29.896C280.71 29.9813 280.774 30.1947 280.774 30.536C280.774 31.8587 280.305 32.584 279.366 32.712ZM328.314 34.76C328.016 35.016 327.397 35.2507 326.458 35.464C325.52 35.6347 324.88 35.7413 324.538 35.784C324.88 37.4053 325.05 38.1947 325.05 38.152C325.349 39.2187 325.669 40.6907 326.01 42.568C326.778 46.8773 327.568 50.5467 328.378 53.576C328.592 54.5573 328.698 55.1333 328.698 55.304C328.698 55.7307 328.528 56.0933 328.186 56.392C327.845 56.6907 327.44 56.84 326.97 56.84C326.544 56.84 326.16 56.6053 325.818 56.136C325.477 55.7093 325.242 55.3253 325.114 54.984C324.73 53.5333 324.368 51.912 324.026 50.12C323.728 48.328 323.365 46.1733 322.938 43.656C322.768 42.5467 322.49 41.1813 322.106 39.56C321.722 37.896 321.466 36.808 321.338 36.296C318.821 36.6373 314.49 37.32 308.346 38.344L304.634 38.984L303.29 42.76L301.498 47.88C300.005 52.5307 298.938 56.1147 298.298 58.632C298.17 59.2293 297.914 59.72 297.53 60.104C297.146 60.5307 296.677 60.744 296.122 60.744C295.653 60.744 295.248 60.616 294.906 60.36C294.608 60.104 294.458 59.7413 294.458 59.272C294.458 58.8027 294.714 57.8 295.226 56.264C295.738 54.7707 296.037 53.8747 296.122 53.576C296.293 53.1493 296.634 52.168 297.146 50.632C297.701 48.968 298.405 46.9627 299.258 44.616C300.154 42.2267 300.752 40.648 301.05 39.88C298.874 40.392 297.253 40.7973 296.186 41.096C294.565 41.5227 293.562 41.736 293.178 41.736C292.709 41.736 292.346 41.5653 292.09 41.224C291.877 40.84 291.77 40.4347 291.77 40.008C291.77 39.496 291.898 39.1547 292.154 38.984C292.41 38.7707 292.837 38.5787 293.434 38.408C295.056 38.024 296.762 37.64 298.554 37.256C300.389 36.872 301.648 36.616 302.33 36.488C302.757 35.2507 303.077 34.2053 303.29 33.352C303.461 32.7973 303.674 32.1147 303.93 31.304C304.229 30.4507 304.549 29.4053 304.89 28.168L305.85 24.904C307.472 19.1867 308.41 15.9227 308.666 15.112C308.88 14.5147 309.072 14.0453 309.242 13.704C309.456 13.3627 309.733 13.192 310.074 13.192C310.928 13.192 311.696 13.32 312.378 13.576C312.464 13.4907 312.592 13.32 312.762 13.064C312.976 12.7653 313.189 12.5733 313.402 12.488C313.658 12.36 313.978 12.296 314.362 12.296C315.13 12.296 316.005 13.1707 316.986 14.92C318.01 16.6693 318.992 18.7387 319.93 21.128C320.485 22.536 321.189 24.648 322.042 27.464C322.896 30.2373 323.45 32.072 323.706 32.968C324.346 32.8827 324.88 32.776 325.306 32.648C325.776 32.4773 326.074 32.3707 326.202 32.328C326.416 32.2427 326.65 32.0933 326.906 31.88C327.162 31.6667 327.397 31.5173 327.61 31.432C327.824 31.304 328.058 31.304 328.314 31.432C328.869 31.688 329.146 32.2213 329.146 33.032C329.146 33.3307 329.061 33.6507 328.89 33.992C328.762 34.3333 328.57 34.5893 328.314 34.76ZM317.498 22.664C316.901 21.0853 316.133 19.464 315.194 17.8C314.256 16.136 313.466 15.0907 312.826 14.664L312.122 16.328C311.312 17.9493 310.693 19.4213 310.266 20.744C309.242 23.816 307.621 28.8933 305.402 35.976L312.89 34.696L319.034 33.736L320.762 33.48C320.549 32.712 320.101 31.112 319.418 28.68C318.736 26.2053 318.096 24.2 317.498 22.664Z" fill="#E7F6F2"/>
</svg>
